<?xml version="1.0" standalone="no"?>
<!DOCTYPE svg PUBLIC "-//W3C//DTD SVG 20010904//EN"
 "http://www.w3.org/TR/2001/REC-SVG-20010904/DTD/svg10.dtd">
<svg version="1.0" xmlns="http://www.w3.org/2000/svg"
 width="458.000000pt" height="153.000000pt" viewBox="0 0 458.000000 153.000000"
 preserveAspectRatio="xMidYMid meet">

<g transform="translate(0.000000,153.000000) scale(0.100000,-0.100000)"
fill="#000000" stroke="none">
<path d="M213 1520 c-49 -10 -111 -41 -135 -66 -9 -11 -25 -40 -36 -65 -19
-44 -20 -75 -23 -610 -4 -599 -4 -601 44 -671 25 -37 90 -74 157 -88 39 -8
209 -11 595 -8 498 3 543 5 580 22 74 33 110 80 134 171 13 48 14 837 2 1030
-6 92 -14 142 -27 170 -24 50 -95 99 -164 114 -60 13 -1062 13 -1127 1z m1053
-214 c17 -10 40 -33 50 -50 18 -29 19 -58 19 -486 0 -434 -1 -456 -20 -487
-38 -64 -51 -66 -455 -76 -540 -12 -573 -8 -620 76 -21 36 -22 49 -23 490 l-2
452 24 35 c14 19 26 37 27 38 1 2 20 10 41 18 31 11 125 13 483 11 416 -2 447
-3 476 -21z"/>
<path d="M1747 1463 c-4 -3 -7 -143 -7 -310 l0 -303 94 0 c110 0 154 18 177
73 18 42 18 173 0 215 -19 45 -74 72 -146 72 l-55 0 0 95 0 95 79 0 c95 0 111
5 111 35 0 13 -7 26 -16 29 -21 8 -229 8 -237 -1z m181 -329 c20 -14 22 -24
22 -99 0 -104 -15 -125 -92 -125 l-48 0 0 113 c0 63 3 117 7 120 12 13 89 7
111 -9z"/>
<path d="M2097 1463 c-16 -4 -17 -25 -15 -306 l3 -302 35 0 35 0 3 138 3 138
37 -3 37 -3 5 -90 c3 -58 11 -101 22 -122 49 -89 205 -82 244 12 21 51 20 424
-1 469 -32 66 -142 94 -202 50 -47 -34 -63 -79 -63 -171 l0 -83 -39 0 c-38 0
-38 1 -44 43 -3 23 -3 84 -1 135 2 51 0 92 -5 92 -5 0 -15 2 -23 4 -7 2 -21 2
-31 -1z m347 -98 c3 -9 6 -105 6 -213 0 -187 -1 -197 -22 -219 -26 -28 -58
-29 -89 -4 -23 19 -24 24 -27 193 -4 226 0 256 41 273 26 11 36 11 58 -1 15
-7 29 -21 33 -29z"/>
<path d="M2592 1462 c-9 -6 -12 -75 -10 -308 l3 -299 35 0 35 0 3 118 3 117
52 0 c106 0 147 53 147 192 0 91 -16 132 -66 164 -29 20 -180 32 -202 16z
m173 -77 c23 -22 25 -32 25 -109 0 -105 -15 -126 -92 -126 l-48 0 0 123 c0 68
3 127 7 130 3 4 24 7 45 7 28 0 46 -7 63 -25z"/>
<path d="M2993 1458 c-17 -6 -44 -24 -60 -40 l-28 -29 -3 -214 c-3 -187 -1
-219 14 -251 46 -97 199 -100 249 -5 22 43 22 428 0 475 -27 56 -107 86 -172
64z m96 -84 c20 -25 21 -40 21 -221 l0 -194 -26 -24 c-30 -27 -51 -31 -75 -12
-35 26 -39 54 -39 242 0 184 0 186 25 210 32 33 68 32 94 -1z"/>
<path d="M1747 684 c-4 -4 -7 -144 -7 -311 l0 -304 33 3 32 3 5 135 5 135 67
3 c82 4 80 7 76 -158 l-3 -115 35 0 35 0 0 305 0 305 -30 0 -30 0 -3 -137 -3
-138 -74 0 -74 0 -3 138 -3 137 -25 3 c-14 2 -29 0 -33 -4z"/>
<path d="M2095 678 c-3 -7 -4 -146 -3 -308 l3 -295 34 0 34 0 52 160 c28 88
56 176 61 195 5 20 16 35 24 35 12 0 15 -20 15 -105 0 -58 1 -147 3 -198 l2
-93 28 3 27 3 0 305 0 305 -29 3 c-16 2 -33 -1 -40 -8 -6 -6 -38 -90 -71 -187
-33 -97 -66 -178 -72 -181 -10 -3 -13 41 -15 185 -3 187 -3 188 -26 191 -12 2
-24 -3 -27 -10z"/>
<path d="M2457 683 c-7 -11 -12 -303 -9 -471 l2 -143 33 3 32 3 5 112 c3 69
10 117 17 124 7 7 14 11 17 8 2 -2 31 -59 65 -126 57 -114 63 -123 89 -123 35
0 44 7 31 29 -25 44 -139 295 -139 307 0 7 15 39 34 71 18 32 50 90 70 128 35
67 36 70 17 79 -11 5 -26 6 -34 3 -7 -3 -44 -60 -81 -126 -37 -67 -72 -121
-77 -121 -5 0 -9 53 -9 119 0 99 -3 120 -16 125 -21 8 -42 8 -47 -1z"/>
<path d="M2785 680 c-3 -5 10 -58 29 -117 19 -59 48 -152 65 -205 45 -142 39
-197 -26 -220 -27 -10 -33 -17 -33 -40 0 -24 4 -28 28 -28 42 0 90 27 107 60
8 16 22 55 31 87 8 32 26 99 40 148 13 50 37 139 54 200 30 112 29 124 -11
125 -27 0 -36 -19 -73 -169 -20 -79 -38 -147 -41 -150 -11 -10 -23 16 -43 94
-35 133 -55 199 -65 213 -11 14 -53 16 -62 2z"/>
<path d="M3244 683 c-8 -5 -14 -74 -18 -198 -10 -306 -13 -324 -47 -344 -37
-21 -42 -71 -6 -71 33 0 86 36 98 68 6 15 15 127 19 249 5 122 11 227 15 232
7 13 74 14 92 3 9 -6 13 -77 15 -277 l3 -270 33 -3 32 -3 -2 308 -3 308 -110
3 c-60 1 -115 -1 -121 -5z"/>
<path d="M3557 684 c-4 -4 -7 -144 -7 -311 l0 -303 34 0 35 0 56 177 c68 214
75 233 86 233 5 0 10 -91 11 -202 l3 -203 30 0 30 0 3 299 c2 318 3 316 -45
316 -32 0 -43 -23 -108 -217 -32 -95 -62 -173 -66 -173 -5 0 -10 87 -11 193
-3 185 -4 192 -23 195 -12 2 -24 0 -28 -4z"/>
<path d="M3917 683 c-4 -7 -11 -517 -8 -586 1 -26 4 -28 34 -25 l32 3 3 138 3
138 67 -3 67 -3 5 -135 5 -135 35 0 35 0 2 302 c2 292 2 302 -17 308 -11 4
-29 3 -40 0 -19 -6 -20 -15 -20 -141 l0 -134 -70 0 -70 0 0 134 c0 113 -2 135
-16 140 -21 8 -42 8 -47 -1z"/>
<path d="M4362 678 c-5 -7 -28 -114 -51 -238 -23 -124 -48 -256 -55 -293 -14
-73 -10 -83 30 -75 18 3 28 27 39 90 l6 38 74 0 c69 0 75 -2 79 -22 22 -108
20 -103 54 -106 24 -3 32 1 32 13 0 15 -64 369 -91 505 -18 93 -23 100 -68
100 -21 0 -43 -6 -49 -12z m58 -141 c0 -12 11 -72 25 -132 35 -154 37 -145
-40 -145 -36 0 -65 4 -65 9 0 5 9 56 21 113 12 57 23 114 26 128 8 41 12 50
23 50 5 0 10 -10 10 -23z"/>
</g>
</svg>
